<svg width="47" height="44" viewBox="0 0 47 44" fill="none" xmlns="http://www.w3.org/2000/svg">
<path d="M12.5625 15.25L19.3125 22L12.5625 28.75M18.375 22H4.6875" stroke="#EA5E3A" stroke-width="2" stroke-miterlimit="10" stroke-linecap="square"/>
<path fill-rule="evenodd" clip-rule="evenodd" d="M45 22C45 33.0665 36.1327 42 25.2405 42C18.7842 42 13.0394 38.8612 9.43096 34H7C10.8825 40.0204 17.6018 44 25.2405 44C37.2579 44 47 34.1503 47 22C47 9.84974 37.2579 0 25.2405 0C17.6018 0 10.8825 3.97958 7 10H9.43096C13.0394 5.13876 18.7842 2 25.2405 2C36.1327 2 45 10.9335 45 22Z" fill="#EA5E3A"/>
</svg>
