<svg width="214" height="298" viewBox="0 0 214 298" fill="none" xmlns="http://www.w3.org/2000/svg">
<path d="M107 0.25C48.3434 0.25 0.75 43.0887 0.75 95.875C0.75 180.875 107 297.75 107 297.75C107 297.75 213.25 180.875 213.25 95.875C213.25 43.0887 165.657 0.25 107 0.25ZM107 149C98.5943 149 90.3774 146.507 83.3883 141.837C76.3992 137.167 70.9518 130.53 67.7351 122.764C64.5184 114.998 63.6768 106.453 65.3166 98.2087C66.9565 89.9645 71.0042 82.3917 76.948 76.448C82.8917 70.5042 90.4645 66.4565 98.7087 64.8166C106.953 63.1768 115.498 64.0184 123.264 67.2351C131.03 70.4518 137.667 75.8992 142.337 82.8883C147.007 89.8774 149.5 98.0943 149.5 106.5C149.488 117.768 145.006 128.571 137.038 136.538C129.071 144.506 118.268 148.988 107 149Z" fill="#181818"/>
</svg>
