<svg width="61" height="57" viewBox="0 0 61 57" fill="none" xmlns="http://www.w3.org/2000/svg">
<path d="M2.375 9.375C2.375 7.88316 2.96763 6.45242 4.02252 5.39752C5.07742 4.34263 6.50816 3.75 8 3.75H53C54.4918 3.75 55.9226 4.34263 56.9775 5.39752C58.0324 6.45242 58.625 7.88316 58.625 9.375V13.905L30.5 29.7225L2.375 13.905V9.375Z" fill="white"/>
<path d="M2.375 18.2059V46.8746C2.375 48.3665 2.96763 49.7972 4.02252 50.8521C5.07742 51.907 6.50816 52.4996 8 52.4996H53C54.4918 52.4996 55.9226 51.907 56.9775 50.8521C58.0324 49.7972 58.625 48.3665 58.625 46.8746V18.2059L30.5 34.0271L2.375 18.2059Z" fill="white"/>
</svg>
