<svg width="60" height="60" viewBox="0 0 60 60" fill="none" xmlns="http://www.w3.org/2000/svg">
<g clip-path="url(#clip0_30_488)">
<path d="M10 0C7.34784 0 4.8043 1.05357 2.92893 2.92893C1.05357 4.8043 0 7.34784 0 10L0 18C0 41.196 18.804 60 42 60H50C52.6522 60 55.1957 58.9464 57.0711 57.0711C58.9464 55.1957 60 52.6522 60 50V44.472C60 43.3571 59.6893 42.2643 59.1029 41.3162C58.5165 40.368 57.6775 39.602 56.68 39.104L47.02 34.272C46.2509 33.8875 45.4082 33.6728 44.5489 33.6424C43.6896 33.6121 42.8338 33.7668 42.0394 34.096C41.2451 34.4253 40.5309 34.9214 39.9451 35.5508C39.3592 36.1802 38.9155 36.9282 38.644 37.744L37.452 41.316C37.2326 41.9715 36.7817 42.5245 36.1838 42.8714C35.5858 43.2182 34.8819 43.335 34.204 43.2C29.9097 42.341 25.9656 40.2304 22.8685 37.1341C19.7715 34.0377 17.66 30.0941 16.8 25.8C16.665 25.1221 16.7818 24.4182 17.1286 23.8202C17.4755 23.2223 18.0285 22.7714 18.684 22.552L23.12 21.072C24.5536 20.5933 25.7537 19.5912 26.4804 18.266C27.2071 16.9408 27.407 15.3902 27.04 13.924L24.696 4.548C24.3723 3.25007 23.6241 2.09755 22.5704 1.27353C21.5166 0.449509 20.2177 0.00126148 18.88 0L10 0Z" fill="white"/>
</g>
<defs>
<clipPath id="clip0_30_488">
<rect width="60" height="60" fill="white"/>
</clipPath>
</defs>
</svg>
