<svg width="60" height="60" viewBox="0 0 60 60" fill="none" xmlns="http://www.w3.org/2000/svg">
<g clip-path="url(#clip0_30_486)">
<path d="M59.972 6.32794C60.0291 5.98442 59.9955 5.63193 59.8746 5.30537C59.7536 4.97881 59.5495 4.68949 59.2824 4.46603C59.0153 4.24258 58.6945 4.09274 58.3517 4.03134C58.0089 3.96993 57.6561 3.9991 57.328 4.11595L1.328 24.1159C0.958871 24.2476 0.636548 24.4847 0.401068 24.798C0.165588 25.1113 0.0273298 25.4868 0.00346761 25.878C-0.0203945 26.2691 0.0711909 26.6587 0.266847 26.9983C0.462504 27.3378 0.753608 27.6124 1.104 27.7879L17.104 35.7879C17.4193 35.9458 17.7708 36.0174 18.1227 35.9956C18.4746 35.9739 18.8145 35.8594 19.108 35.6639L32.388 26.8079L24.44 36.7519C24.267 36.9684 24.1409 37.2184 24.0697 37.4861C23.9984 37.7539 23.9836 38.0335 24.0261 38.3073C24.0686 38.5811 24.1675 38.843 24.3165 39.0766C24.4656 39.3101 24.6616 39.5101 24.892 39.6639L48.892 55.6639C49.1699 55.8487 49.4897 55.961 49.8221 55.9906C50.1545 56.0202 50.489 55.9661 50.7952 55.8333C51.1014 55.7005 51.3695 55.4932 51.575 55.2302C51.7805 54.9673 51.917 54.6571 51.972 54.3279L59.972 6.32794Z" fill="white"/>
</g>
<defs>
<clipPath id="clip0_30_486">
<rect width="60" height="60" fill="white"/>
</clipPath>
</defs>
</svg>
