<svg width="71" height="99" viewBox="0 0 71 99" fill="none" xmlns="http://www.w3.org/2000/svg">
<g clip-path="url(#clip0_10_224)">
<path d="M59.5171 23.6955H56.3429V9.99952C56.3418 9.20395 56.1834 8.41638 55.8765 7.68176C55.5697 6.94715 55.1204 6.27989 54.5545 5.71807C53.9886 5.15625 53.317 4.71088 52.5782 4.40738C51.8393 4.10389 51.0476 3.94822 50.2483 3.94926H48.312V0.789852H50.2483C51.4645 0.788814 52.6689 1.02621 53.7929 1.48847C54.9169 1.95074 55.9384 2.62883 56.7991 3.48403C57.6597 4.33923 58.3428 5.35478 58.8091 6.47271C59.2755 7.59064 59.5161 8.78905 59.5171 9.99952V23.6955Z" fill="#EA5E3A"/>
<path d="M14.6729 23.6955H11.4987V9.99952C11.5008 7.55761 12.4763 5.21631 14.2111 3.48961C15.9459 1.76292 18.2982 0.791944 20.7516 0.789852H22.6879V3.94926H20.7516C19.1401 3.95135 17.5952 4.58946 16.4556 5.72365C15.3161 6.85784 14.675 8.39553 14.6729 9.99952V23.6955Z" fill="#EA5E3A"/>
<path d="M43.5983 4.73911H27.4017C26.7703 4.73911 26.1647 4.48946 25.7183 4.04508C25.2718 3.60071 25.021 2.998 25.021 2.36955C25.021 1.74111 25.2718 1.1384 25.7183 0.694027C26.1647 0.249649 26.7703 0 27.4017 0L43.5983 0C44.2297 0 44.8352 0.249649 45.2817 0.694027C45.7281 1.1384 45.979 1.74111 45.979 2.36955C45.979 2.998 45.7281 3.60071 45.2817 4.04508C44.8352 4.48946 44.2297 4.73911 43.5983 4.73911Z" fill="#EA5E3A"/>
<path d="M14.7841 93.471V95.8406C14.7841 96.6785 15.1185 97.4821 15.7138 98.0746C16.3091 98.6671 17.1164 99 17.9583 99C18.8002 99 19.6076 98.6671 20.2028 98.0746C20.7981 97.4821 21.1326 96.6785 21.1326 95.8406V93.471H14.7841Z" fill="#EA5E3A"/>
<path d="M49.8595 93.471V95.8406C49.8595 96.6785 50.1939 97.4821 50.7892 98.0746C51.3845 98.6671 52.1919 99 53.0337 99C53.8756 99 54.683 98.6671 55.2783 98.0746C55.8736 97.4821 56.208 96.6785 56.208 95.8406V93.471H49.8595Z" fill="#EA5E3A"/>
<path d="M26.1399 69.9888L5.64221 90.3906C6.97412 91.029 8.43326 91.3611 9.91158 91.3621H37.6148L26.1399 69.9888Z" fill="#EA5E3A"/>
<path d="M0 51.7511V77.3976L16.7918 60.6843L0 51.7511Z" fill="#EA5E3A"/>
<path d="M61.1043 20.6704H9.91159C7.28425 20.6704 4.7644 21.7087 2.90584 23.5571C1.04729 25.4055 0.00210356 27.9127 0 30.5278L0 41.8621L3.96781 42.3992L6.84844 39.5321C7.33777 39.0461 8.00103 38.7735 8.69231 38.7742C9.38359 38.7749 10.0463 39.049 10.5345 39.536C11.0228 40.0231 11.2967 40.6832 11.296 41.3713C11.2952 42.0593 11.0199 42.7189 10.5306 43.2049L10.475 43.2681L31.4568 46.0563L39.2575 38.292C40.7478 36.8051 42.4131 35.503 44.2173 34.4138C45.9893 33.3384 47.8903 32.4892 49.8754 31.8863C50.5969 31.6147 51.3818 31.5561 52.136 31.7176C52.8901 31.879 53.5814 32.2537 54.1269 32.7966C54.6723 33.3395 55.0488 34.0276 55.211 34.7782C55.3732 35.5288 55.3144 36.3101 55.0415 37.0282C54.4388 38.9975 53.5967 40.886 52.5338 42.652C51.4366 44.4457 50.1286 46.1029 48.6374 47.5886L40.8288 55.3607L43.6459 76.2444L43.7094 76.1812C44.2042 75.7215 44.8591 75.4711 45.5358 75.4827C46.2126 75.4943 46.8583 75.767 47.3369 76.2434C47.8156 76.7198 48.0896 77.3625 48.1013 78.0361C48.1129 78.7097 47.8613 79.3615 47.3995 79.854L44.5188 82.7212L45.6774 91.3621H61.1043C63.733 91.3621 66.2541 90.3228 68.1128 88.4727C69.9716 86.6226 71.0159 84.1133 71.0159 81.4969V30.5278C71.0138 27.9127 69.9686 25.4055 68.11 23.5571C66.2515 21.7087 63.7316 20.6704 61.1043 20.6704Z" fill="#EA5E3A"/>
</g>
<defs>
<clipPath id="clip0_10_224">
<rect width="71" height="99" fill="white"/>
</clipPath>
</defs>
</svg>
