<svg width="54" height="54" viewBox="0 0 54 54" fill="none" xmlns="http://www.w3.org/2000/svg">
<path d="M50.9062 3.09384L23.6015 30.3985M3.22497 20.4306L50.1 2.68955C50.2691 2.62487 50.4533 2.61054 50.6304 2.64829C50.8074 2.68604 50.9698 2.77425 51.0978 2.90227C51.2258 3.03029 51.314 3.19264 51.3518 3.36971C51.3895 3.54678 51.3752 3.73099 51.3105 3.90009L33.5695 50.7751C33.4989 50.9531 33.3756 51.1052 33.216 51.211C33.0563 51.3168 32.8682 51.3712 32.6767 51.3669C32.4853 51.3625 32.2998 51.2997 32.1451 51.1868C31.9905 51.0738 31.8741 50.9163 31.8117 50.7352L23.9133 31.2716C23.8212 30.9957 23.6662 30.7451 23.4606 30.5395C23.2549 30.3339 23.0043 30.1789 22.7285 30.0868L3.26482 22.1954C3.08146 22.1344 2.92143 22.0182 2.80664 21.8628C2.69185 21.7073 2.62789 21.5202 2.62353 21.327C2.61917 21.1338 2.67461 20.944 2.78227 20.7835C2.88994 20.6231 3.04456 20.4998 3.22497 20.4306Z" stroke="#181818" stroke-width="4" stroke-linecap="round" stroke-linejoin="round"/>
</svg>
